<svg width="25" height="25" viewBox="0 0 25 25" fill="none" xmlns="http://www.w3.org/2000/svg">
<g clip-path="url(#clip0_255_2487)">
<path d="M24.9986 9.62783C24.9986 8.77277 24.1809 8.08736 23.1788 8.08736C22.1686 8.08736 21.3589 8.77956 21.3589 9.62783V16.0883C21.3589 16.9433 22.1766 17.6287 23.1788 17.6287C24.1889 17.6287 24.9986 16.9365 24.9986 16.0883V9.62783ZM4.35472 8.37917V18.3956C4.35472 19.3049 5.22057 20.0446 6.30287 20.0446H7.62568V23.4648C7.62568 24.3131 8.44342 25.0053 9.44555 25.0053C10.4557 25.0053 11.2654 24.3131 11.2654 23.4581V20.0378H13.7267V23.4581C13.7267 24.3063 14.5444 25.0053 15.5465 24.9985C16.5567 24.9985 17.3664 24.3063 17.3664 23.4513V20.031H18.6972C19.7715 20.031 20.6454 19.2981 20.6454 18.382V8.3656L4.35472 8.37917ZM16.236 5.31861C15.8592 5.31861 15.5465 5.06073 15.5465 4.73499C15.5465 4.41604 15.8512 4.15138 16.236 4.15138C16.6128 4.15138 16.9255 4.41604 16.9255 4.73499C16.9255 5.06073 16.6208 5.31861 16.236 5.31861ZM8.7641 5.32539C8.3873 5.32539 8.07464 5.06073 8.07464 4.74178C8.07464 4.42283 8.37928 4.15817 8.7641 4.15817C9.1409 4.15817 9.45357 4.42283 9.45357 4.74178C9.45357 5.06073 9.1409 5.32539 8.7641 5.32539ZM16.5246 2.28518L17.7993 0.31719C17.8635 0.215397 17.8234 0.086462 17.7031 0.0253849C17.5829 -0.028904 17.4225 0.00502586 17.3584 0.113605L16.0757 2.10196C14.9934 1.69479 13.7828 1.46406 12.5 1.46406C11.2253 1.46406 10.0148 1.688 8.94048 2.09517L7.65775 0.113605C7.59361 0.0118122 7.43327 -0.028904 7.31302 0.0253849C7.19276 0.0796757 7.14466 0.215397 7.20879 0.31719L8.48351 2.28518C5.98219 3.37776 4.29059 5.45433 4.29059 7.84306H20.7095C20.7095 5.45433 19.0179 3.37776 16.5246 2.28518ZM1.82134 8.08736C0.811188 8.08736 0.00146484 8.77956 0.00146484 9.62783V16.0883C0.00146484 16.9433 0.819205 17.6287 1.82134 17.6287C2.82347 17.6287 3.64121 16.9433 3.64121 16.0883C3.64121 16.0883 3.64121 16.0883 3.64121 16.0815V9.62104C3.64922 8.77956 2.83149 8.08736 1.82134 8.08736Z" fill="white"/>
</g>
<defs>
<clipPath id="clip0_255_2487">
<rect width="25" height="25" fill="white"/>
</clipPath>
</defs>
</svg>
