<svg width="25" height="20" viewBox="0 0 25 20" fill="none" xmlns="http://www.w3.org/2000/svg">
<g clip-path="url(#clip0_137_3013)">
<path d="M24.5166 5.62659C24.2864 2.77647 21.791 0.0737632 19.314 0.0737632C14.756 0.0737632 15.5387 3.09096 12.6013 3.09096C9.16207 3.09096 10.5617 -0.0245169 5.8978 0.0246231C3.74771 0.0246231 0.709033 2.03937 0.570912 5.67573C0.446602 8.99268 0.0184256 17.1745 0.0184256 17.1745C0.0184256 17.1745 -0.036823 19.9263 2.27441 19.9263C5.95765 19.9263 5.95765 13.2924 12.5875 13.2924C18.9411 13.2924 18.9871 19.9755 23.0387 19.9755C24.1437 19.9755 24.9862 18.5504 24.9724 17.3219C24.931 13.1942 24.756 8.56516 24.5166 5.62659ZM9.85728 8.08359H7.29283V10.806H5.27625V8.08359H2.73021V5.93126H5.27625V3.19907H7.29283V5.93126H9.85728V8.08359ZM18.8306 2.82561C19.581 2.82561 20.1888 3.47425 20.1888 4.27524C20.1888 5.07622 19.581 5.72487 18.8306 5.72487C18.0801 5.72487 17.4724 5.07622 17.4724 4.27524C17.4724 3.47425 18.0801 2.82561 18.8306 2.82561ZM16.2984 8.42757C15.5479 8.42757 14.9402 7.77892 14.9402 6.97794C14.9402 6.17696 15.5479 5.52831 16.2984 5.52831C17.0488 5.52831 17.6565 6.17696 17.6565 6.97794C17.6565 7.77892 17.0488 8.42757 16.2984 8.42757ZM18.7845 11.1303C18.0341 11.1303 17.4263 10.4816 17.4263 9.68064C17.4263 8.87966 18.0341 8.23101 18.7845 8.23101C19.535 8.23101 20.1427 8.87966 20.1427 9.68064C20.1427 10.4816 19.535 11.1303 18.7845 11.1303ZM21.3168 8.47671C20.5663 8.47671 19.9586 7.82806 19.9586 7.02708C19.9586 6.2261 20.5663 5.57745 21.3168 5.57745C22.0672 5.57745 22.675 6.2261 22.675 7.02708C22.675 7.82806 22.0672 8.47671 21.3168 8.47671Z" fill="white"/>
</g>
<defs>
<clipPath id="clip0_137_3013">
<rect width="25" height="20" fill="white"/>
</clipPath>
</defs>
</svg>
