<svg width="25" height="23" viewBox="0 0 25 23" fill="none" xmlns="http://www.w3.org/2000/svg">
<g clip-path="url(#clip0_255_2479)">
<path d="M15.9737 23C13.6283 23 11.358 22.9182 9.01258 22.9182C8.8895 22.9019 8.75274 22.9019 8.64333 22.91C4.60202 22.4193 1.2924 19.0167 0.314551 14.3137C0.17779 13.6593 0.102571 12.9805 0 12.3098C0 11.8026 0 11.2955 0 10.7802C0.0683807 10.2813 0.123085 9.78237 0.21198 9.28344C1.18982 3.86879 4.93709 0.188135 9.58014 0.122701C11.5085 0.0981632 13.4368 0.114522 15.3652 0.122701C15.8028 0.122701 16.2473 0.155418 16.6781 0.23721C21.7929 1.15328 25.3077 6.51068 24.8427 12.6451C24.4871 17.3073 21.7451 21.2578 17.9568 22.5174C17.3072 22.7301 16.637 22.8446 15.9737 23ZM12.4726 2.94454C12.4726 2.92 12.4726 2.96907 12.4726 2.94454C11.1734 2.94454 9.85367 2.87092 8.56811 3.05905C4.78665 3.60705 2.1198 7.64759 2.39333 12.2443C2.65317 16.6284 5.81236 20.1373 9.53228 20.1536C11.488 20.1618 13.4437 20.1618 15.3993 20.1455C15.796 20.1455 16.1994 20.1046 16.5892 20.0228C20.2475 19.2621 22.8392 15.2216 22.5246 10.7884C22.2101 6.37981 19.0987 2.95272 15.3857 2.93636C14.4147 2.93636 13.4437 2.94454 12.4726 2.94454Z" fill="white"/>
<path d="M14.4489 13.5285C14.4489 11.1156 14.4489 8.70272 14.4489 6.24077C15.3583 6.24077 16.2404 6.24077 17.1499 6.24077C17.1499 9.76602 17.1499 13.2913 17.1499 16.8983C16.7191 16.8983 16.2883 16.9065 15.8575 16.8983C15.3788 16.8901 14.8181 17.0537 14.4489 16.8083C14.0933 16.5793 13.9223 15.925 13.683 15.4506C12.7188 13.6021 11.7615 11.7536 10.7973 9.90507C10.7289 9.7742 10.6537 9.65969 10.517 9.41432C10.5033 9.71695 10.4965 9.88053 10.4965 10.0523C10.4965 12.1707 10.4896 14.281 10.5033 16.3994C10.5033 16.792 10.4144 16.9229 10.0793 16.9147C9.32714 16.8901 8.56811 16.9065 7.78857 16.9065C7.78857 13.3322 7.78857 9.80692 7.78857 6.19988C8.23989 6.19988 8.68436 6.1917 9.12884 6.19988C9.59383 6.20806 10.1409 6.04447 10.4965 6.28167C10.852 6.51887 11.0298 7.15685 11.276 7.63124C12.2333 9.46339 13.177 11.3037 14.1343 13.144C14.2095 13.2913 14.2916 13.4303 14.3668 13.5694C14.3805 13.553 14.4147 13.5366 14.4489 13.5285Z" fill="white"/>
</g>
<defs>
<clipPath id="clip0_255_2479">
<rect width="25" height="23" fill="white"/>
</clipPath>
</defs>
</svg>
