<svg width="25" height="25" viewBox="0 0 25 25" fill="none" xmlns="http://www.w3.org/2000/svg">
<path d="M12.5 1C10.3545 1 8.30928 1.60039 6.61328 2.65039C6.50378 2.68689 6.31458 2.8309 6.14258 2.9834C7.66508 1.7739 11.1859 4.19647 12.2139 4.91797C12.3869 5.03947 12.6141 5.03947 12.7871 4.91797C13.8151 4.19647 17.3359 1.7734 18.8584 2.9834C18.6864 2.8309 18.4967 2.68689 18.3877 2.65039C16.6912 1.60039 14.6455 1 12.5 1ZM5.5 4C4.7015 4 4.11816 4.65039 4.11816 4.65039C2.22216 6.70039 1.02539 9.45 1.02539 12.5C1.02539 18.85 6.164 24 12.5 24C15.8425 24 18.8859 22.55 20.9814 20.25C20.9814 20.25 20.732 18.7498 19.1855 16.5498C17.456 13.9413 13.9526 10.656 12.8311 9.64746C12.6396 9.47546 12.3541 9.47639 12.1641 9.65039C11.3191 10.4239 9.1387 12.5889 8.6582 13.1504C7.5107 14.3504 4.31766 18.1498 4.11816 20.2998C4.11816 20.2998 3.41932 18.6002 4.96582 14.7002C5.92832 12.3572 8.91769 8.87399 10.3672 7.35449C10.5597 7.15299 10.5551 6.83455 10.3516 6.64355C9.87156 6.19405 8.75264 5.4063 7.74414 4.7998C7.04614 4.3498 6.2485 4.05 5.5 4ZM19.3447 4C19.0182 4 16.897 4.67141 14.665 6.64941C14.454 6.83641 14.4456 7.16273 14.6416 7.36523C15.4501 8.20073 17.6613 10.3407 18.9863 12.4502C20.6328 15.1502 21.6302 17.3 21.0312 20.25C22.8773 18.2 24.0254 15.5 24.0254 12.5C23.9754 9.5 22.8276 6.7502 20.9316 4.7002C20.8816 4.6502 20.8317 4.5998 20.7822 4.5498C20.3832 4.0998 19.7937 4 19.3447 4Z" fill="white"/>
</svg>
